LG_walk_Faster01																		
version=1																		
nRows=91																		
nColumns=19																		
inDegrees=yes																		
endheader																		
time	ground_force2_vx	ground_force2_vy	ground_force2_vz	ground_force2_px	ground_force2_py	ground_force2_pz	ground_torque2_x	ground_torque2_y	ground_torque2_z	ground_force1_vx	ground_force1_vy	ground_force1_vz	ground_force1_px	ground_force1_py	ground_force1_pz	ground_torque1_x	ground_torque1_y	ground_torque1_z
5.272	0	0	0	0.2	0	-0.3	0	0	0	24.282446	693.755432	170.485565	-0.167397	0	0.477382	-1.80E-05	0.757263	-2.00E-06
5.273	0	0	0	0.2	0	-0.3	0	0	0	22.171812	693.269775	169.702133	-0.167397	0	0.477655	-2.60E-05	0.599802	-2.00E-06
5.274	0	0	0	0.2	0	-0.3	0	0	0	22.018995	684.817139	169.467102	-0.167323	0	0.478135	-2.60E-05	0.599802	-2.00E-06
5.275	0	0	0	0.2	0	-0.3	0	0	0	22.018995	679.312866	168.370316	-0.167246	0	0.47815	-2.60E-05	0.639693	-1.00E-06
5.276	0	0	0	0.2	0	-0.3	0	0	0	22.018995	675.525879	167.665314	-0.167083	0	0.47815	-2.90E-05	0.639693	-3.00E-06
5.277	0	0	0	0.2	0	-0.3	0	0	0	20.144077	673.477356	165.079865	-0.167044	0	0.47815	-2.90E-05	0.466501	-5.00E-06
5.278	0	0	0	0.2	0	-0.3	0	0	0	18.976316	665.562378	164.923294	-0.167083	0	0.478588	-1.50E-05	0.466501	-5.00E-06
5.279	0	0	0	0.2	0	-0.3	0	0	0	18.43713	658.003296	164.061661	-0.167132	0	0.479167	-1.40E-05	0.547995	-4.00E-06
5.28	0	0	0	0.2	0	-0.3	0	0	0	18.352787	653.890015	161.319641	-0.167132	0	0.479438	-7.00E-06	0.723519	-4.00E-06
5.281	0	0	0	0.2	0	-0.3	0	0	0	16.640785	648.025513	161.241486	-0.167071	0	0.480374	-7.00E-06	0.723519	-9.00E-06
5.282	0	0	0	0.2	0	-0.3	0	0	0	15.07727	636.849609	159.831329	-0.167071	0	0.480856	-2.70E-05	0.589858	-9.00E-06
5.283	0	0	0	0.2	0	-0.3	0	0	0	14.535921	631.886963	158.578064	-0.167071	0	0.481306	-2.70E-05	0.589858	-7.00E-06
5.284	0	0	0	0.2	0	-0.3	0	0	0	14.218746	626.547424	158.499908	-0.167053	0	0.481306	-1.80E-05	0.807415	1.00E-06
5.285	0	0	0	0.2	0	-0.3	0	0	0	13.754525	621.567383	157.95163	-0.166839	0	0.481353	-1.80E-05	0.834565	1.00E-06
5.286	0	0	0	0.2	0	-0.3	0	0	0	12.586761	616.746643	157.24649	-0.166679	0	0.482007	-1.80E-05	0.807415	-1.00E-06
5.287	0	0	0	0.2	0	-0.3	0	0	0	11.728236	605.542603	156.071411	-0.166655	0	0.483944	-1.60E-05	0.733007	-5.00E-06
5.288	0	0	0	0.2	0	-0.3	0	0	0	11.103264	594.564209	154.896271	-0.166408	0	0.483944	-9.00E-06	0.733007	-5.00E-06
5.289	0	0	0	0.2	0	-0.3	0	0	0	9.936943	592.156616	153.721375	-0.166655	0	0.484076	-9.00E-06	0.90872	-5.00E-06
5.29	0	0	0	0.2	0	-0.3	0	0	0	9.469837	587.522156	152.624512	-0.166408	0	0.484076	-1.50E-05	0.90872	-5.00E-06
5.291	0	0	0	0.2	0	-0.3	0	0	0	8.457775	579.436707	151.135864	-0.166214	0	0.484615	-1.70E-05	0.847687	-5.00E-06
5.292	0	0	0	0.2	0	-0.3	0	0	0	7.208551	570.673462	150.509155	-0.166214	0	0.485097	-1.80E-05	0.806785	-6.00E-06
5.293	0	0	0	0.2	0	-0.3	0	0	0	6.817854	562.595276	149.725891	-0.16643	0	0.48585	-1.80E-05	0.806785	-7.00E-06
5.294	0	0	0	0.2	0	-0.3	0	0	0	6.817854	553.158325	148.080658	-0.166535	0	0.48613	-1.80E-05	0.965294	-7.00E-06
5.295	0	0	0	0.2	0	-0.3	0	0	0	6.900755	545.768616	147.062347	-0.166535	0	0.486672	-1.80E-05	1.074097	-2.00E-06
5.296	0	0	0	0.2	0	-0.3	0	0	0	6.900755	539.048218	145.495544	-0.165805	0	0.486672	-1.50E-05	1.074097	-1.00E-06
5.297	0	0	0	0.2	0	-0.3	0	0	0	5.882922	530.288574	142.518265	-0.165805	0	0.487586	-1.40E-05	0.809028	-2.00E-06
5.298	0	0	0	0.2	0	-0.3	0	0	0	4.635863	519.646851	141.499893	-0.165871	0	0.487167	-9.00E-06	0.809028	1.00E-06
5.299	0	0	0	0.2	0	-0.3	0	0	0	4.326625	515.352661	140.951981	-0.166028	0	0.488296	-7.00E-06	1.001062	-8.00E-06
5.3	0	0	0	0.2	0	-0.3	0	0	0	4.326625	502.451813	138.131516	-0.165954	0	0.490016	-7.00E-06	1.001062	-5.00E-06
5.301	0	0	0	0.2	0	-0.3	0	0	0	4.015941	495.74295	136.172882	-0.165954	0	0.490321	-8.00E-06	1.108894	-5.00E-06
5.302	0	0	0	0.2	0	-0.3	0	0	0	3.623079	485.777466	133.979401	-0.165577	0	0.491226	-1.00E-05	1.008428	-5.00E-06
5.303	0	0	0	0.2	0	-0.3	0	0	0	2.686702	474.606628	131.237503	-0.165577	0	0.492955	-2.00E-05	1.150134	-2.00E-06
5.304	0	0	0	0.2	0	-0.3	0	0	0	2.375299	461.903351	129.435852	-0.165766	0	0.492955	-1.50E-05	1.146171	-1.00E-06
5.305	0	0	0	0.2	0	-0.3	0	0	0	2.139582	457.624542	126.850548	-0.165766	0	0.493334	-2.00E-05	1.146171	-1.00E-06
5.306	0	0	0	0.2	0	-0.3	0	0	0	2.139582	444.886841	124.892044	-0.165514	0	0.495195	-1.50E-05	1.146171	-1.00E-06
5.307	0	0	0	0.2	0	-0.3	0	0	0	2.138859	429.417877	120.818176	-0.165514	0	0.497444	-1.60E-05	1.282721	-6.00E-06
5.308	0	0	0	0.2	0	-0.3	0	0	0	1.911082	420.323364	119.016373	-0.165594	0	0.498226	-8.00E-06	1.520699	-6.00E-06
5.309	0	0	0	0.2	0	-0.3	0	0	0	1.521827	410.518646	115.569504	-0.165767	0	0.498975	-1.30E-05	1.544551	-5.00E-06
5.31	0	0	0	0.2	0	-0.3	0	0	0	0.664745	403.150696	111.887207	-0.165594	0	0.500187	-1.30E-05	1.544551	-4.00E-06
5.311	0	0	0	0.2	0	-0.3	0	0	0	0.664022	394.542542	108.91008	-0.165188	0	0.500584	-1.30E-05	1.470285	-2.00E-06
5.312	0	0	0	0.2	0	-0.3	0	0	0	0.58906	385.08667	105.306107	-0.165188	0	0.500923	-9.00E-06	1.470285	-2.00E-06
5.313	0	0	0	0.2	0	-0.3	0	0	0	0.664022	370.148407	101.153793	-0.165572	0	0.502036	-7.00E-06	1.529574	-2.00E-06
5.314	0	0	0	0.2	0	-0.3	0	0	0	0.902628	363.453491	96.844925	-0.165572	0	0.503769	-7.00E-06	1.675014	-3.00E-06
5.315	0	0	0	0.2	0	-0.3	0	0	0	2.471192	356.231232	93.632607	-0.165344	0	0.504453	-6.00E-06	1.874031	-3.00E-06
5.316	0	0	0	0.2	0	-0.3	0	0	0	2.471192	345.220001	89.636986	-0.164906	0	0.505134	-4.00E-06	1.874031	-3.00E-06
5.317	0	0	0	0.2	0	-0.3	0	0	0	1.611946	338.018677	84.230774	-0.164312	0	0.506684	-3.00E-06	1.765917	-3.00E-06
5.318	0	0	0	0.2	0	-0.3	0	0	0	1.381281	330.449677	81.645462	-0.164906	0	0.506853	-4.00E-06	1.765917	-1.00E-06
5.319	0	0	0	0.2	0	-0.3	0	0	0	0.992747	317.568878	78.903374	-0.165197	0	0.509561	-8.00E-06	1.886964	-3.00E-06
5.32	0	0	0	0.2	0	-0.3	0	0	0	0.839932	311.060608	76.47477	-0.165197	0	0.509726	-8.00E-06	2.027479	-2.00E-06
5.321	0	0	0	0.2	0	-0.3	0	0	0	0.217846	300.044403	74.35936	-0.165938	0	0.513478	-1.20E-05	2.105495	-2.00E-06
5.322	0	0	0	0.2	0	-0.3	0	0	0	-0.402796	287.00473	71.30378	-0.166232	0	0.515519	-9.00E-06	2.045587	0.00E+00
5.323	0	0	0	0.2	0	-0.3	0	0	0	-1.570561	276.689392	68.4832	-0.166232	0	0.51867	-9.00E-06	2.071089	0
5.324	0	0	0	0.2	0	-0.3	0	0	0	-2.191925	268.441925	66.054512	-0.166423	0	0.519658	-7.00E-06	2.045587	0
5.325	0	0	0	0.2	0	-0.3	0	0	0	-3.673258	262.791504	64.174057	-0.166097	0	0.519658	-7.00E-06	2.001259	-2.00E-06
5.326	0	0	0	0.2	0	-0.3	0	0	0	-3.673258	256.080811	61.510292	-0.166888	0	0.519658	-9.00E-06	1.921046	-2.00E-06
5.327	0	0	0	0.2	0	-0.3	0	0	0	-3.433211	247.146286	58.140873	-0.165105	0	0.524728	-1.10E-05	2.001259	-3.00E-06
5.328	0	0	0	0.2	0	-0.3	0	0	0	-2.013131	235.793793	53.283051	-0.165128	0	0.524728	-1.10E-05	2.157378	-3.00E-06
5.329	0	0	0	0.2	0	-0.3	0	0	0	-1.941054	230.305801	49.287109	-0.165062	0	0.525165	-9.00E-06	2.249106	-2.00E-06
5.33	0	0	0	0.2	0	-0.3	0	0	0	-1.304534	225.840317	45.682777	-0.165062	0	0.525165	-3.00E-06	2.249106	-2.00E-06
5.331	0	0	0	0.2	0	-0.3	0	0	0	-1.073868	216.385559	42.470345	-0.16422	0	0.52757	-7.00E-06	2.184528	-3.00E-06
5.332	0	0	0	0.2	0	-0.3	0	0	0	-0.677397	207.620804	39.101044	-0.16422	0	0.531406	-7.00E-06	2.184528	-3.00E-06
5.333	0	0	0	0.2	0	-0.3	0	0	0	0.265474	200.597595	36.201927	-0.16422	0	0.531982	-8.00E-06	2.422069	-2.00E-06
5.334	0	0	0	0.2	0	-0.3	0	0	0	0.971183	192.51442	33.22448	-0.164233	0	0.536681	-8.00E-06	2.502186	-1.00E-06
5.335	0	0	0	0.2	0	-0.3	0	0	0	2.225458	184.269241	30.482149	-0.164738	0	0.537489	-1.10E-05	2.843084	-1.00E-06
5.336	0	0	0	0.2	0	-0.3	0	0	0	2.225458	182.558228	28.28821	-0.164738	0	0.539206	-7.00E-06	2.843084	0.00E+00
5.337	0	0	0	0.2	0	-0.3	0	0	0	1.213397	176.380905	26.094353	-0.164738	0	0.539206	-3.00E-06	2.592273	0
5.338	0	0	0	0.2	0	-0.3	0	0	0	1.213397	168.998596	24.762371	-0.165633	0	0.543594	-3.00E-06	2.592273	-1.00E-06
5.339	0	0	0	0.2	0	-0.3	0	0	0	2.314134	161.953796	23.430309	-0.166294	0	0.547865	-4.00E-06	2.881705	-2.00E-06
5.34	0	0	0	0.2	0	-0.3	0	0	0	2.550573	155.083328	20.217953	-0.16642	0	0.55189	-4.00E-06	2.997142	-3.00E-06
5.341	0	0	0	0.2	0	-0.3	0	0	0	2.397757	148.405731	20.217953	-0.167244	0	0.553407	-5.00E-06	3.015026	-2.00E-06
5.342	0	0	0	0.2	0	-0.3	0	0	0	2.397757	140.145508	20.452944	-0.167244	0	0.563407	-1.00E-06	3.015026	-1.00E-06
5.343	0	0	0	0.2	0	-0.3	0	0	0	2.004894	134.466934	20.452944	-0.167405	0	0.56893	-5.00E-06	3.076418	-1.00E-06
5.344	0	0	0	0.2	0	-0.3	0	0	0	1.771341	125.200012	20.217831	-0.169306	0	0.571835	-5.00E-06	2.977574	-1.00E-06
5.345	0	0	0	0.2	0	-0.3	0	0	0	1.771341	124.866364	18.102345	-0.169306	0	0.571835	-5.00E-06	3.076418	-1.00E-06
5.346	0	0	0	0.2	0	-0.3	0	0	0	2.245664	123.494385	17.162098	-0.168919	0	0.571835	-5.00E-06	2.962305	-1.00E-06
5.347	0	0	0	0.2	0	-0.3	0	0	0	2.477052	109.389359	15.046447	-0.168497	0	0.578853	-6.00E-06	3.057683	-1.00E-06
5.348	0	0	0	0.2	0	-0.3	0	0	0	2.558511	105.977722	14.497932	-0.168492	0	0.584059	-5.00E-06	3.050992	-1.00E-06
5.349	0	0	0	0.2	0	-0.3	0	0	0	2.947044	102.180695	12.539307	-0.168492	0	0.584059	-5.00E-06	3.057683	-1.00E-06
5.35	0	0	0	0.2	0	-0.3	0	0	0	4.121303	96.524879	11.128956	-0.167721	0	0.589361	-3.00E-06	3.391947	-1.00E-06
5.351	0	0	0	0.2	0	-0.3	0	0	0	5.060565	94.288116	9.953716	-0.165798	0	0.589423	-3.00E-06	3.621622	-1.00E-06
5.352	0	0	0	0.2	0	-0.3	0	0	0	5.834024	88.269318	8.778517	-0.165798	0	0.601522	-3.00E-06	3.621622	-1.00E-06
5.353	0	0	0	0.2	0	-0.3	0	0	0	5.916205	79.001221	7.759899	-0.167702	0	0.613752	-3.00E-06	3.71488	-1.00E-06
5.354	0	0	0	0.2	0	-0.3	0	0	0	6.850417	76.946136	7.368165	-0.167956	0	0.616601	-3.00E-06	3.780959	-1.00E-06
5.355	0	0	0	0.2	0	-0.3	0	0	0	9.348142	72.304733	7.054642	-0.169138	0	0.629545	-3.00E-06	4.525329	-1.00E-06
5.356	0	0	0	0.2	0	-0.3	0	0	0	9.348142	66.474953	7.133053	-0.168895	0	0.632237	-2.00E-06	4.525329	0
5.357	0	0	0	0.2	0	-0.3	0	0	0	9.577364	65.796906	6.66311	-0.169041	0	0.640999	-2.00E-06	4.525329	0
5.358	0	0	0	0.2	0	-0.3	0	0	0	10.123766	60.647522	6.50665	-0.169041	0	0.647995	0.00E+00	4.728634	-1.00E-06
5.359	0	0	0	0.2	0	-0.3	0	0	0	10.664392	52.049809	6.50665	-0.174143	0	0.685185	-3.00E-06	5.153441	-1.00E-06
5.36	0	0	0	0.2	0	-0.3	0	0	0	10.975796	49.494026	6.585061	-0.174143	0	0.685185	0.00E+00	5.263919	0
5.361	0	0	0	0.2	0	-0.3	0	0	0	11.36505	49.313545	6.585061	-0.169583	0	0.689283	-1.00E-06	5.26546	0
5.362	0	0	0	0.2	0	-0.3	0	0	0	11.36505	40.545334	6.271819	-0.169583	0	0.739443	-1.00E-06	5.586997	-1.00E-06
